<?xml version="1.0" encoding="utf-8"?>
<?xml-stylesheet type="text/xsl" href="rss1.xsl"?>
<rss version="2.0" xmlns:atom="http://www.w3.org/2005/Atom" xmlns:content="http://purl.org/rss/1.0/modules/content/" xmlns:dc="http://purl.org/dc/elements/1.1/" xmlns:media="http://search.yahoo.com/mrss/">
<channel>
 <title>sharemania</title>
 <link>http://www.sharemania.us/</link>
 <atom:link href="http://www.gettyimg.com/" rel="self" type="application/rss+xml" />

 
                <item>
                <title><![CDATA[【HD Live Performances】Alanis Morissette Montreux Jazz Festival 2025]]></title>
                <link><![CDATA[https://sharemania.us/threads/alanis-morissette-montreux-jazz-festival-2025.281934/]]></link>
                <description><![CDATA[<article>
				<blockquote class="messageText SelectQuoteContainer ugc baseHtml">
					
					<b><span style="font-size: 18px">Filling a request.</span></b><br>
<br>
<img src="https://images2.imgbox.com/50/cf/22K06ndK_o.jpg" class="bbCodeImage LbImage" alt="[​IMG]" data-url="https://images2.imgbox.com/50/cf/22K06ndK_o.jpg" style=""> <br>
<br>
Montreux.Jazz.Festival.2025.Alanis.Morissette.1080p.WEB.OPUS2.0.VP9<br>
<br>



<div class="ToggleTriggerAnchor bbCodeSpoilerContainer">
	<button type="button" class="button bbCodeSpoilerButton ToggleTrigger Tooltip JsOnly" data-target="&gt; .SpoilerTarget"><span>Spoiler: <span class="SpoilerTitle">Media Info</span></span></button>
	<div class="SpoilerTarget bbCodeSpoilerText">

<div class="bbCodeBlock bbCodeCode">
	<div class="type">Code:</div>
	<pre>General
Unique ID                      : 193290085831307155037606839489047847343 (0x916A5101441FF2B095B19DEA3BB461AF)
Complete name                  : Montreux.Jazz.Festival.2025.Alanis.Morissette.1080p.WEB.OPUS2.0.VP9.mkv
Format                         : Matroska
Format version                 : Version 4
File size                      : 899 MiB
Duration                       : 1 h 31 min
Overall bit rate               : 1 375 kb/s
Frame rate                     : 30.828 FPS
Movie name                     : Montreux Jazz Festival 2025: Alanis Morissette | Scène du Lac | Day 16
Encoded date                   : 2025-07-21 21:20:06 UTC
Writing application            : Lavf61.7.100
Writing library                : Lavf61.7.100
Comment                        : https://www.youtube.com/watch?v=VOO_SAfTvQc /  / MONTREUX JAZZ FESTIVAL / WHERE LEGENDS ARE BORN  /  / In collaboration with Millennium, Official Audiovisual Production Partner of the Montreux Jazz Festival /  / The Montreux Jazz Festival takes place for two weeks every summer in Switzerland, drawing 250,000 music lovers to the shores of Lake Geneva. Since 1967, the Festival has celebrated all genres of music and generated countless legendary performances. Artists who have graced the stage of Montreux include Aretha Franklin, David Bowie, Prince, Bob Dylan, Lauryn Hill, Kendrick Lamar, Leonard Cohen, Marvin Gaye, Miles Davis, Nina Simone and many more. /  / Official Website: http://www.montreuxjazzfestival.com / Facebook: https://www.facebook.com/montreuxjazzfestival / Instagram: https://www.instagram.com/montreuxjazzfestival / Twitter: https://twitter.com/MontreuxJazz /  / #MJF24 #WhereLegendsAreBorn #MontreuxJazzFestival #MontreuxJazz #Festival #MusicFestival #SummerFestival #Live
ErrorDetectionType             : Per level 1
ARTIST                         : Montreux Jazz Festival
DATE                           : 20250719

Video
ID                             : 1
Format                         : VP9
Format profile                 : 0
Codec ID                       : V_VP9
Duration                       : 1 h 31 min
Bit rate                       : 1 288 kb/s
Width                          : 1 920 pixels
Height                         : 1 080 pixels
Display aspect ratio           : 16:9
Frame rate mode                : Variable
Frame rate                     : 30.828 FPS
Color space                    : YUV
Chroma subsampling             : 4:2:0
Bit depth                      : 8 bits
Bits/(Pixel*Frame)             : 0.020
Stream size                    : 866 MiB (96%)
Language                       : English
Default                        : Yes
Forced                         : No
Color range                    : Limited
Color primaries                : BT.709
Transfer characteristics       : BT.709
Matrix coefficients            : BT.709

Audio
ID                             : 2
Format                         : Opus
Codec ID                       : A_OPUS
Duration                       : 1 h 31 min
Bit rate                       : 124 kb/s
Channel(s)                     : 2 channels
Channel layout                 : L R
Sampling rate                  : 48.0 kHz
Frame rate                     : 51.380 FPS (934 SPF)
Bit depth                      : 32 bits
Compression mode               : Lossy
Delay relative to video        : 80 ms
Stream size                    : 83.3 MiB (9%)
Title                          : Montreux Jazz Festival 2025: Alanis Morissette | Scène du Lac | Day 16
Writing library                : Lavf59.27.100
Language                       : English
Default                        : Yes
Forced                         : No
ARTIST                         : Montreux Jazz Festival
Description                    : https://www.youtube.com/watch?v=VOO_SAfTvQc
Recorded date                  : 20250719</pre>
</div></div>
</div><br>




<div class="bbCodeBlock bbCodeVfcHH HiddenContent">
	<div class="attribution type">Hidden Content:</div>
	<blockquote>You must reply before you can see the hidden data contained here.</blockquote>
</div>
					<div class="messageTextEndMarker">&nbsp;</div>
				</blockquote>
			</article>]]></description>
                <author><![CDATA[josh31p]]></author>
                </item>

                </channel></rss>